<svg xmlns="http://www.w3.org/2000/svg" xmlns:xlink="http://www.w3.org/1999/xlink" width="200" zoomAndPan="magnify" viewBox="0 0 150 30.000001" height="40" preserveAspectRatio="xMidYMid meet" version="1.0"><defs><g/></defs><g fill="#00abb3" fill-opacity="1"><g transform="translate(8.147174, 19.042132)"><g><path d="M 7.609375 0 L 4.96875 -4.796875 L 4.21875 -4.796875 L 4.21875 0 L 1.125 0 L 1.125 -12.71875 L 6.3125 -12.71875 C 7.320312 -12.71875 8.175781 -12.539062 8.875 -12.1875 C 9.582031 -11.832031 10.113281 -11.347656 10.46875 -10.734375 C 10.820312 -10.128906 11 -9.453125 11 -8.703125 C 11 -7.859375 10.757812 -7.101562 10.28125 -6.4375 C 9.800781 -5.78125 9.097656 -5.3125 8.171875 -5.03125 L 11.09375 0 Z M 4.21875 -6.984375 L 6.140625 -6.984375 C 6.703125 -6.984375 7.125 -7.125 7.40625 -7.40625 C 7.695312 -7.6875 7.84375 -8.078125 7.84375 -8.578125 C 7.84375 -9.066406 7.695312 -9.445312 7.40625 -9.71875 C 7.125 -10 6.703125 -10.140625 6.140625 -10.140625 L 4.21875 -10.140625 Z M 4.21875 -6.984375 "/></g></g></g><g fill="#00abb3" fill-opacity="1"><g transform="translate(19.951064, 19.042132)"><g><path d="M 4.21875 -12.71875 L 4.21875 0 L 1.125 0 L 1.125 -12.71875 Z M 4.21875 -12.71875 "/></g></g></g><g fill="#00abb3" fill-opacity="1"><g transform="translate(25.291782, 19.042132)"><g><path d="M 13.0625 -12.71875 L 8.546875 0 L 4.671875 0 L 0.15625 -12.71875 L 3.453125 -12.71875 L 6.609375 -3.109375 L 9.78125 -12.71875 Z M 13.0625 -12.71875 "/></g></g></g><g fill="#00abb3" fill-opacity="1"><g transform="translate(38.507791, 19.042132)"><g><path d="M 9.03125 -2.25 L 4.296875 -2.25 L 3.53125 0 L 0.296875 0 L 4.890625 -12.71875 L 8.46875 -12.71875 L 13.078125 0 L 9.796875 0 Z M 8.234375 -4.640625 L 6.671875 -9.296875 L 5.109375 -4.640625 Z M 8.234375 -4.640625 "/></g></g></g><g fill="#00abb3" fill-opacity="1"><g transform="translate(51.850527, 19.042132)"><g><path d="M 4.21875 -2.390625 L 8.28125 -2.390625 L 8.28125 0 L 1.125 0 L 1.125 -12.71875 L 4.21875 -12.71875 Z M 4.21875 -2.390625 "/></g></g></g><g fill="#00abb3" fill-opacity="1"><g transform="translate(60.486206, 19.042132)"><g><path d="M 4.21875 -10.234375 L 4.21875 -7.65625 L 8.359375 -7.65625 L 8.359375 -5.265625 L 4.21875 -5.265625 L 4.21875 -2.484375 L 8.90625 -2.484375 L 8.90625 0 L 1.125 0 L 1.125 -12.71875 L 8.90625 -12.71875 L 8.90625 -10.234375 Z M 4.21875 -10.234375 "/></g></g></g><g fill="#00abb3" fill-opacity="1"><g transform="translate(70.28055, 19.042132)"><g/></g></g><g fill="#00abb3" fill-opacity="1"><g transform="translate(74.118632, 19.042132)"><g><path d="M 12.140625 -12.71875 L 12.140625 0 L 9.03125 0 L 9.03125 -5.234375 L 4.21875 -5.234375 L 4.21875 0 L 1.125 0 L 1.125 -12.71875 L 4.21875 -12.71875 L 4.21875 -7.734375 L 9.03125 -7.734375 L 9.03125 -12.71875 Z M 12.140625 -12.71875 "/></g></g></g><g fill="#00abb3" fill-opacity="1"><g transform="translate(87.352758, 19.042132)"><g><path d="M 7.140625 0.125 C 5.941406 0.125 4.84375 -0.148438 3.84375 -0.703125 C 2.851562 -1.265625 2.0625 -2.039062 1.46875 -3.03125 C 0.882812 -4.03125 0.59375 -5.148438 0.59375 -6.390625 C 0.59375 -7.640625 0.882812 -8.757812 1.46875 -9.75 C 2.0625 -10.738281 2.851562 -11.507812 3.84375 -12.0625 C 4.84375 -12.613281 5.941406 -12.890625 7.140625 -12.890625 C 8.328125 -12.890625 9.421875 -12.613281 10.421875 -12.0625 C 11.421875 -11.507812 12.207031 -10.738281 12.78125 -9.75 C 13.351562 -8.757812 13.640625 -7.640625 13.640625 -6.390625 C 13.640625 -5.148438 13.347656 -4.03125 12.765625 -3.03125 C 12.179688 -2.039062 11.394531 -1.265625 10.40625 -0.703125 C 9.414062 -0.148438 8.328125 0.125 7.140625 0.125 Z M 7.140625 -2.703125 C 8.148438 -2.703125 8.957031 -3.035156 9.5625 -3.703125 C 10.175781 -4.378906 10.484375 -5.273438 10.484375 -6.390625 C 10.484375 -7.515625 10.175781 -8.410156 9.5625 -9.078125 C 8.957031 -9.753906 8.148438 -10.09375 7.140625 -10.09375 C 6.109375 -10.09375 5.285156 -9.757812 4.671875 -9.09375 C 4.066406 -8.425781 3.765625 -7.523438 3.765625 -6.390625 C 3.765625 -5.265625 4.066406 -4.367188 4.671875 -3.703125 C 5.285156 -3.035156 6.109375 -2.703125 7.140625 -2.703125 Z M 7.140625 -2.703125 "/></g></g></g><g fill="#00abb3" fill-opacity="1"><g transform="translate(101.58261, 19.042132)"><g><path d="M 10.265625 -12.71875 L 10.265625 -10.234375 L 6.90625 -10.234375 L 6.90625 0 L 3.796875 0 L 3.796875 -10.234375 L 0.4375 -10.234375 L 0.4375 -12.71875 Z M 10.265625 -12.71875 "/></g></g></g><g fill="#00abb3" fill-opacity="1"><g transform="translate(112.282164, 19.042132)"><g><path d="M 4.21875 -10.234375 L 4.21875 -7.65625 L 8.359375 -7.65625 L 8.359375 -5.265625 L 4.21875 -5.265625 L 4.21875 -2.484375 L 8.90625 -2.484375 L 8.90625 0 L 1.125 0 L 1.125 -12.71875 L 8.90625 -12.71875 L 8.90625 -10.234375 Z M 4.21875 -10.234375 "/></g></g></g><g fill="#00abb3" fill-opacity="1"><g transform="translate(122.076507, 19.042132)"><g><path d="M 4.21875 -2.390625 L 8.28125 -2.390625 L 8.28125 0 L 1.125 0 L 1.125 -12.71875 L 4.21875 -12.71875 Z M 4.21875 -2.390625 "/></g></g></g><g fill="#00abb3" fill-opacity="1"><g transform="translate(130.712186, 19.042132)"><g><path d="M 5.71875 0.125 C 4.789062 0.125 3.957031 -0.0234375 3.21875 -0.328125 C 2.488281 -0.628906 1.898438 -1.070312 1.453125 -1.65625 C 1.015625 -2.25 0.785156 -2.960938 0.765625 -3.796875 L 4.0625 -3.796875 C 4.101562 -3.328125 4.265625 -2.96875 4.546875 -2.71875 C 4.828125 -2.476562 5.1875 -2.359375 5.625 -2.359375 C 6.082031 -2.359375 6.441406 -2.460938 6.703125 -2.671875 C 6.972656 -2.878906 7.109375 -3.171875 7.109375 -3.546875 C 7.109375 -3.859375 7.003906 -4.117188 6.796875 -4.328125 C 6.585938 -4.535156 6.328125 -4.703125 6.015625 -4.828125 C 5.710938 -4.960938 5.273438 -5.113281 4.703125 -5.28125 C 3.890625 -5.539062 3.222656 -5.796875 2.703125 -6.046875 C 2.179688 -6.296875 1.734375 -6.664062 1.359375 -7.15625 C 0.984375 -7.65625 0.796875 -8.304688 0.796875 -9.109375 C 0.796875 -10.296875 1.222656 -11.222656 2.078125 -11.890625 C 2.941406 -12.554688 4.0625 -12.890625 5.4375 -12.890625 C 6.832031 -12.890625 7.957031 -12.554688 8.8125 -11.890625 C 9.675781 -11.222656 10.140625 -10.289062 10.203125 -9.09375 L 6.84375 -9.09375 C 6.820312 -9.5 6.671875 -9.816406 6.390625 -10.046875 C 6.109375 -10.285156 5.753906 -10.40625 5.328125 -10.40625 C 4.953125 -10.40625 4.648438 -10.304688 4.421875 -10.109375 C 4.191406 -9.910156 4.078125 -9.625 4.078125 -9.25 C 4.078125 -8.84375 4.269531 -8.523438 4.65625 -8.296875 C 5.039062 -8.066406 5.644531 -7.816406 6.46875 -7.546875 C 7.289062 -7.273438 7.957031 -7.007812 8.46875 -6.75 C 8.976562 -6.5 9.421875 -6.128906 9.796875 -5.640625 C 10.171875 -5.160156 10.359375 -4.539062 10.359375 -3.78125 C 10.359375 -3.0625 10.171875 -2.40625 9.796875 -1.8125 C 9.429688 -1.21875 8.898438 -0.742188 8.203125 -0.390625 C 7.503906 -0.046875 6.675781 0.125 5.71875 0.125 Z M 5.71875 0.125 "/></g></g></g></svg>